<svg width="19" height="18" viewBox="0 0 19 18" fill="none" xmlns="http://www.w3.org/2000/svg">
<path d="M14.25 4.5V4.5075" stroke="#656565" stroke-width="2" stroke-linecap="round" stroke-linejoin="round"/>
<path d="M14.25 9.75L11.625 6C11.3723 5.54327 11.2431 5.02852 11.2503 4.5066C11.2574 3.98467 11.4006 3.47364 11.6657 3.024C11.9308 2.57436 12.3086 2.20166 12.7619 1.94274C13.2151 1.68382 13.728 1.54763 14.25 1.54763C14.772 1.54763 15.2849 1.68382 15.7381 1.94274C16.1914 2.20166 16.5692 2.57436 16.8343 3.024C17.0994 3.47364 17.2426 3.98467 17.2497 4.5066C17.2569 5.02852 17.1277 5.54327 16.875 6L14.25 9.75Z" stroke="#656565" stroke-width="1.5" stroke-linecap="round" stroke-linejoin="round"/>
<path d="M8.625 3.5625L7.5 3L3 5.25V15L7.5 12.75L12 15L16.5 12.75V11.25" stroke="#656565" stroke-width="1.5" stroke-linecap="round" stroke-linejoin="round"/>
<path d="M7.5 3V12.75" stroke="#656565" stroke-width="1.5" stroke-linecap="round" stroke-linejoin="round"/>
<path d="M12 11.25V15" stroke="#656565" stroke-width="1.5" stroke-linecap="round" stroke-linejoin="round"/>
</svg>
