<svg width="24" height="24" viewBox="0 0 24 24" fill="none" xmlns="http://www.w3.org/2000/svg">
<path fill-rule="evenodd" clip-rule="evenodd" d="M12 21C16.9706 21 21 16.9705 21 12C21 7.02953 16.9706 3 12 3C7.02943 3 3 7.02953 3 12C3 16.9705 7.02943 21 12 21ZM15.9872 8.01287C16.318 8.34349 16.318 8.87988 15.9872 9.21077L13.1979 12L15.9872 14.7892C16.318 15.1201 16.318 15.6565 15.9872 15.9871C15.6564 16.318 15.1201 16.318 14.7893 15.9871L12 13.1979L9.21073 15.9871C8.87995 16.318 8.34362 16.318 8.0128 15.9871C7.68202 15.6565 7.68202 15.1201 8.0128 14.7892L10.8021 12L8.0128 9.21077C7.68202 8.87988 7.68202 8.34349 8.0128 8.01287C8.34359 7.68199 8.87992 7.68199 9.21073 8.01287L12 10.8021L14.7893 8.01287C15.1201 7.68199 15.6564 7.68199 15.9872 8.01287Z" fill="#C0C0C0"/>
</svg>
