<svg width="22" height="22" viewBox="0 0 22 22" fill="none" xmlns="http://www.w3.org/2000/svg">
<path fill-rule="evenodd" clip-rule="evenodd" d="M3.29289 17.2929C2.90237 17.6834 2.90237 18.3166 3.29289 18.7071C3.68342 19.0976 4.31658 19.0976 4.70711 18.7071L11 12.4142L17.2929 18.7071C17.6834 19.0976 18.3166 19.0976 18.7071 18.7071C19.0976 18.3166 19.0976 17.6834 18.7071 17.2929L12.4142 11L18.7071 4.70711C19.0976 4.31658 19.0976 3.68342 18.7071 3.29289C18.3166 2.90237 17.6834 2.90237 17.2929 3.29289L11 9.58579L4.70711 3.29289C4.31658 2.90237 3.68342 2.90237 3.29289 3.29289C2.90237 3.68342 2.90237 4.31658 3.29289 4.70711L9.58579 11L3.29289 17.2929Z" fill="#383F43"/>
</svg>
